HIERARCHY
ROOT joint_0
{
	OFFSET 0.000000 0.000000 0.000000
	CHANNELS 6 Xposition Yposition Zposition Zrotation Yrotation Xrotation 
	JOINT joint_1
	{
		OFFSET 14.113007 -2.961990 123.953979
		CHANNELS 3 Zrotation Yrotation Xrotation
		JOINT joint_2
		{
			OFFSET 0.764000 -2.434006 113.871948
			CHANNELS 3 Zrotation Yrotation Xrotation
			JOINT joint_3
			{
				OFFSET 0.186996 -2.169998 113.753052
				CHANNELS 3 Zrotation Yrotation Xrotation
				JOINT joint_4
				{
					OFFSET 16.096001 -2.720001 160.853027
					CHANNELS 3 Zrotation Yrotation Xrotation
					JOINT joint_5
					{
						OFFSET 34.392006 -0.188995 92.567017
						CHANNELS 3 Zrotation Yrotation Xrotation
						End Site
						{
							OFFSET 0.000000 0.000000 0.000000
						}
					}
				}
				JOINT joint_6
				{
					OFFSET 9.183998 -36.684006 89.597046
					CHANNELS 3 Zrotation Yrotation Xrotation
					JOINT joint_7
					{
						OFFSET 0.486000 -164.365997 -28.984009
						CHANNELS 3 Zrotation Yrotation Xrotation
						JOINT joint_8
						{
							OFFSET 38.899002 -34.967010 -291.651978
							CHANNELS 3 Zrotation Yrotation Xrotation
							JOINT joint_9
							{
								OFFSET 41.714005 -45.890991 -258.857056
								CHANNELS 3 Zrotation Yrotation Xrotation
								End Site
								{
									OFFSET 0.000000 0.000000 0.000000
								}
							}
						}
					}
				}
				JOINT joint_10
				{
					OFFSET 8.867004 33.650002 90.817993
					CHANNELS 3 Zrotation Yrotation Xrotation
					JOINT joint_11
					{
						OFFSET 0.018997 164.299999 -29.368042
						CHANNELS 3 Zrotation Yrotation Xrotation
						JOINT joint_12
						{
							OFFSET 29.440994 30.887997 -293.216919
							CHANNELS 3 Zrotation Yrotation Xrotation
							JOINT joint_13
							{
								OFFSET 46.174011 54.490005 -256.422058
								CHANNELS 3 Zrotation Yrotation Xrotation
								End Site
								{
									OFFSET 0.000000 0.000000 0.000000
								}
							}
						}
					}
				}
			}
		}
	}
	JOINT joint_14
	{
		OFFSET -2.264000 -89.466995 -116.150024
		CHANNELS 3 Zrotation Yrotation Xrotation
		JOINT joint_15
		{
			OFFSET -16.400993 -17.452988 -493.781982
			CHANNELS 3 Zrotation Yrotation Xrotation
			JOINT joint_16
			{
				OFFSET -50.497004 -13.404022 -424.754013
				CHANNELS 3 Zrotation Yrotation Xrotation
				JOINT joint_17
				{
					OFFSET 198.546007 -19.341003 -89.309000
					CHANNELS 3 Zrotation Yrotation Xrotation
					End Site
					{
						OFFSET 0.000000 0.000000 0.000000
					}
				}
			}
		}
	}
	JOINT joint_18
	{
		OFFSET -0.867996 96.016006 -110.817993
		CHANNELS 3 Zrotation Yrotation Xrotation
		JOINT joint_19
		{
			OFFSET -10.130997 24.658998 -493.645020
			CHANNELS 3 Zrotation Yrotation Xrotation
			JOINT joint_20
			{
				OFFSET -48.871004 19.434999 -424.714005
				CHANNELS 3 Zrotation Yrotation Xrotation
				JOINT joint_21
				{
					OFFSET 195.579996 24.926001 -94.327003
					CHANNELS 3 Zrotation Yrotation Xrotation
					End Site
					{
						OFFSET 0.000000 0.000000 0.000000
					}
				}
			}
		}
	}
}
MOTION
Frames: 11
Frame Time: 0.016667
-2193.657715 841.878723 1147.269043 2.933515 12.034022 1.765151 1.237821 1.487175 7.350494 0.970592 0.008349 -1.199915 1.017002 0.213464 1.196403 -1.664429 -7.051794 4.007328 0.000000 0.000000 0.000000 -1.447789 -6.289232 -2.962497 -5.056320 -1.965211 -8.267232 -166.692736 -82.805744 -141.412923 0.000000 0.000000 0.000000 2.383762 4.727519 5.090470 -1.596561 8.803720 13.284399 170.346930 -86.447187 165.615795 0.000000 0.000000 0.000000 3.488378 -37.821631 -11.561534 6.393647 16.726015 2.067271 8.198891 -1.069083 3.207671 0.000000 0.000000 0.000000 -6.301397 -0.628896 3.870777 -5.622746 10.678443 -4.816862 -6.872382 4.550408 -3.457456 0.000000 0.000000 0.000000 
-2169.038574 837.949158 1139.029053 5.200088 11.288305 2.607381 1.086597 1.556561 8.103345 0.848330 -0.065153 -1.324767 0.906409 0.172231 1.354010 -1.705570 -6.737420 3.978309 0.000000 0.000000 0.000000 -2.228494 -6.975625 -3.117526 -4.905356 -2.291433 -8.718292 -166.486653 -80.679737 -142.028030 0.000000 0.000000 0.000000 1.401721 4.170457 4.345479 -1.594324 7.885421 14.050712 170.336361 -87.627855 166.253495 0.000000 0.000000 0.000000 3.662803 -36.093490 -12.921659 7.231650 10.980232 1.262850 8.269469 0.121195 3.328161 0.000000 0.000000 0.000000 -7.107819 -0.356497 4.094963 -6.312162 13.518937 -5.721854 -8.102673 4.029741 -3.847893 0.000000 0.000000 0.000000 
-2144.013672 832.600403 1128.284058 7.952496 10.137699 3.767528 0.857475 1.461648 8.350750 0.695547 -0.203579 -1.413467 0.753047 0.165688 1.450643 -1.725790 -5.970931 3.907182 0.000000 0.000000 0.000000 -2.322243 -7.372666 -3.279400 -4.988114 -2.245640 -9.012208 -166.644624 -78.241277 -141.965314 0.000000 0.000000 0.000000 0.547373 2.933985 3.927083 -1.634219 6.326402 14.788889 -9.871670 -89.643593 -13.641825 0.000000 0.000000 0.000000 3.841443 -33.823594 -14.513270 7.856959 7.181604 0.542792 8.226590 3.702127 3.664768 0.000000 0.000000 0.000000 -8.215926 -0.329564 4.535894 -7.213198 17.259536 -7.347007 -9.868513 3.673698 -4.448650 0.000000 0.000000 0.000000 
-2119.314209 826.391785 1115.873047 10.703430 8.790909 4.847811 0.639154 1.106450 8.459751 0.608627 -0.233238 -1.514979 0.672918 0.152534 1.519044 -1.726878 -4.959390 3.837738 0.000000 0.000000 0.000000 -2.062850 -7.687261 -3.338809 -5.158861 -2.056224 -9.310428 -167.011716 -75.701030 -141.664135 0.000000 0.000000 0.000000 -0.224320 1.218000 3.596150 -1.760325 4.322963 15.332934 -10.280403 -85.734153 -13.864054 0.000000 0.000000 0.000000 4.159705 -31.539210 -15.930097 8.396646 5.262300 0.010010 8.279454 7.820128 4.127387 0.000000 0.000000 0.000000 -9.472668 -0.575449 5.289909 -8.199024 21.610213 -9.372975 -11.991575 3.721851 -5.201297 0.000000 0.000000 0.000000 
-2098.257080 819.843445 1103.951050 12.810647 7.711753 5.408144 0.476486 0.741353 8.762733 0.625321 -0.043145 -1.576033 0.715081 0.115069 1.577865 -1.721598 -4.284678 3.788464 0.000000 0.000000 0.000000 -1.816524 -8.161510 -3.247927 -4.968677 -2.030900 -9.604277 -167.130223 -73.710247 -142.234809 0.000000 0.000000 0.000000 -0.785564 -0.609485 3.341022 -1.917339 2.338090 15.424699 -10.785447 -81.913046 -14.336032 0.000000 0.000000 0.000000 4.194244 -31.117402 -16.586172 8.571277 6.943230 -0.075983 8.546604 9.486617 4.440495 0.000000 0.000000 0.000000 -10.733545 -1.437450 6.490027 -9.124834 26.301590 -11.455889 -14.260461 4.351456 -6.043045 0.000000 0.000000 0.000000 
-2083.327881 813.037170 1092.595947 14.323514 7.011319 5.222982 0.264167 0.672435 9.674434 0.703162 0.328852 -1.607098 0.844319 0.041410 1.642754 -1.678574 -4.287769 3.632919 0.000000 0.000000 0.000000 -1.746964 -8.880630 -3.114448 -3.977147 -2.275411 -9.900633 -166.561519 -72.309858 -144.578391 0.000000 0.000000 0.000000 -1.031607 -2.591970 3.167038 -2.020431 0.349685 14.915357 -11.361064 -78.534937 -15.336326 0.000000 0.000000 0.000000 3.106487 -34.104156 -16.131700 7.791634 14.636399 0.589003 9.311031 7.254481 4.524483 0.000000 0.000000 0.000000 -12.208615 -3.090978 8.389409 -10.153315 31.407888 -13.583061 -16.986475 6.097309 -7.161813 0.000000 0.000000 0.000000 
-2072.040527 805.890259 1081.729004 16.350415 5.956312 4.905834 -0.107987 1.627610 10.684718 0.490683 0.294579 -1.616903 0.652887 -0.008654 1.711894 -1.626038 -4.630134 3.432674 0.000000 0.000000 0.000000 -1.681322 -9.701184 -2.884559 -2.371117 -2.591830 -10.248703 -165.454636 -71.374356 -148.247439 0.000000 0.000000 0.000000 -1.091267 -4.644290 2.986829 -2.086036 -1.602589 14.119221 -11.934071 -75.436504 -16.552180 0.000000 0.000000 0.000000 0.700278 -37.932977 -15.246798 6.034087 25.231515 0.826166 10.418806 4.409101 4.632216 0.000000 0.000000 0.000000 -14.149583 -4.971107 10.380663 -11.567402 36.729894 -15.642362 -20.408574 8.915681 -8.683478 0.000000 0.000000 0.000000 
-2060.259766 798.672668 1073.275024 18.533095 4.675754 4.890731 -0.455320 3.109163 11.170692 0.089667 -0.098258 -1.633585 0.221139 0.052931 1.747598 -1.653427 -4.898668 3.414798 0.000000 0.000000 0.000000 -1.474170 -10.367887 -2.404100 -0.474756 -2.806845 -10.591981 -164.164230 -71.203326 -152.586078 0.000000 0.000000 0.000000 -1.205225 -6.202420 2.880301 -2.141752 -3.003209 13.529565 -12.329355 -73.387233 -17.093500 0.000000 0.000000 0.000000 -1.488654 -39.999084 -14.704759 4.273942 33.163956 0.080589 11.094360 2.848529 4.689678 0.000000 0.000000 0.000000 -15.908378 -6.863368 11.825086 -12.836609 41.821506 -17.428841 -23.543309 11.331932 -10.083910 0.000000 0.000000 0.000000 
-2046.036011 790.702820 1068.489014 19.894902 3.722953 5.295643 -0.740351 4.300730 10.682700 -0.172834 -0.464359 -1.667947 -0.057040 0.375544 1.714660 -1.841813 -4.942669 3.765561 0.000000 0.000000 0.000000 -0.953284 -10.731313 -1.439373 1.676348 -2.888948 -10.759168 -162.840364 -71.928751 -157.598332 0.000000 0.000000 0.000000 -1.483927 -6.931424 3.088089 -2.162266 -3.508104 13.469790 -12.449952 -73.341086 -16.306917 0.000000 0.000000 0.000000 -2.164075 -40.292439 -14.549349 3.117344 37.312612 -1.088075 11.091210 1.597631 4.544221 0.000000 0.000000 0.000000 -16.910689 -9.093129 12.724414 -13.475605 46.952208 -19.125660 -25.777247 12.323292 -10.930558 0.000000 0.000000 0.000000 
-2031.317017 782.662476 1066.114990 20.583000 3.014279 5.861523 -1.020448 5.398218 9.722969 -0.280623 -0.815524 -1.705179 -0.134200 0.842611 1.634735 -2.115976 -4.943660 4.288270 0.000000 0.000000 0.000000 -0.286726 -10.996650 -0.268760 3.692745 -2.994934 -10.761419 -161.665616 -73.185695 -162.731630 0.000000 0.000000 0.000000 -1.812243 -7.192608 3.544932 -2.164744 -3.528639 13.593188 -12.450775 -74.424795 -14.910783 0.000000 0.000000 0.000000 -2.004216 -39.903419 -14.443795 2.255812 39.947552 -2.332506 10.752309 0.103066 4.257775 0.000000 0.000000 0.000000 -17.365833 -11.573959 13.376944 -13.744899 52.084644 -20.639157 -27.289271 12.423710 -11.307914 0.000000 0.000000 0.000000 
-2017.814087 776.869385 1064.307007 20.891808 2.446799 6.267707 -1.170020 6.319330 9.121598 -0.183866 -1.085312 -1.718455 0.015358 1.161387 1.572018 -2.318130 -4.980271 4.642126 0.000000 0.000000 0.000000 0.127269 -11.296686 0.521843 4.957689 -3.210305 -10.865180 -160.959910 -74.673312 -166.776351 0.000000 0.000000 0.000000 -2.124590 -7.478364 3.894937 -2.228508 -3.678910 13.400217 -12.568045 -74.744528 -14.115103 0.000000 0.000000 0.000000 -1.730066 -39.535273 -14.354590 1.610034 42.121475 -3.225432 10.555617 -1.099036 4.056509 0.000000 0.000000 0.000000 -17.450180 -13.943540 13.964207 -13.784853 56.535800 -21.634917 -27.740734 11.900180 -11.135145 0.000000 0.000000 0.000000 
